<?xml version="1.0" standalone="no"?>
<!DOCTYPE svg PUBLIC "-//W3C//DTD SVG 20010904//EN"
 "http://www.w3.org/TR/2001/REC-SVG-20010904/DTD/svg10.dtd">
<svg version="1.0" xmlns="http://www.w3.org/2000/svg"
 width="531.000000pt" height="531.000000pt" viewBox="0 0 531.000000 531.000000"
 preserveAspectRatio="xMidYMid meet">
<metadata>
Created by potrace 1.14, written by Peter Selinger 2001-2017
</metadata>
<g transform="translate(0.000000,531.000000) scale(0.100000,-0.100000)"
fill="#000000" stroke="none">
<path d="M785 3219 c-38 -23 -88 -51 -110 -64 -22 -12 -86 -50 -143 -84 -57
-33 -106 -61 -108 -61 -2 0 -22 -12 -44 -26 l-39 -26 0 -117 0 -117 195 -110
c108 -60 201 -115 209 -121 7 -7 16 -13 19 -13 4 0 334 -189 366 -210 51 -34
58 -32 165 27 l102 56 1 276 c1 152 -1 290 -3 306 -4 25 -16 37 -63 63 -31 17
-68 39 -82 47 -137 82 -375 215 -384 215 -6 0 -42 -19 -81 -41z m279 -120
c105 -62 212 -125 239 -141 l47 -30 0 -272 0 -272 -77 -44 c-42 -24 -81 -43
-87 -43 -6 0 -96 50 -201 110 -104 61 -280 162 -390 225 l-200 115 -3 94 -3
95 33 17 c18 9 40 21 48 27 26 18 394 230 399 230 2 0 90 -50 195 -111z"/>
<path d="M2534 2958 l1 -43 46 -3 45 -3 0 43 -1 43 -46 3 -46 3 1 -43z"/>
<path d="M4105 2978 c-11 -50 -1 -63 46 -63 l43 0 0 40 c0 40 0 40 -41 43 -37
3 -43 0 -48 -20z"/>
<path d="M1648 2840 c-28 -15 -37 -16 -41 -6 -6 15 -74 20 -83 5 -11 -19 -7
-361 5 -369 7 -3 22 -5 34 -4 12 1 28 3 35 3 9 1 12 34 12 130 0 129 0 130 27
151 19 15 35 19 52 15 44 -11 50 -31 51 -167 0 -136 -2 -130 50 -130 11 0 25
0 30 1 6 1 10 47 10 115 0 123 8 159 39 175 15 9 70 0 82 -12 1 -1 5 -65 8
-142 l6 -140 35 1 c19 1 39 2 43 3 5 1 7 70 5 154 -3 150 -4 154 -31 190 -39
51 -97 59 -169 24 l-52 -26 -29 25 c-35 29 -70 31 -119 4z"/>
<path d="M2236 2850 c-76 -24 -146 -112 -146 -185 0 -113 93 -205 206 -205
101 1 194 93 194 192 0 68 -40 141 -94 173 -46 27 -117 38 -160 25z m115 -101
c25 -13 49 -61 49 -100 0 -22 -10 -41 -35 -66 -33 -33 -39 -35 -81 -30 -94 10
-136 107 -76 174 36 41 92 50 143 22z"/>
<path d="M2798 2839 c-30 -15 -38 -16 -38 -5 0 10 -12 13 -42 12 l-43 -1 -3
-187 c-2 -147 0 -188 10 -189 7 0 26 -2 41 -3 16 -1 31 2 34 7 2 4 5 62 5 128
0 137 11 162 67 162 40 0 60 -25 61 -78 5 -234 4 -220 25 -220 11 0 31 2 44 5
24 6 24 7 25 133 1 137 6 150 57 162 20 5 32 1 48 -16 24 -26 23 -18 23 -166
0 -62 3 -113 7 -114 42 -5 81 -2 84 6 2 6 2 69 1 141 -2 150 -15 193 -66 224
-44 26 -85 25 -141 -4 l-45 -24 -33 24 c-39 29 -71 30 -121 3z"/>
<path d="M3372 2844 c-43 -16 -111 -85 -120 -121 -10 -39 -4 -121 11 -149 23
-44 75 -92 115 -105 120 -40 262 53 262 171 0 74 -9 104 -43 142 -61 67 -146
91 -225 62z m118 -89 c41 -21 60 -53 60 -101 0 -72 -63 -117 -138 -98 -91 23
-103 156 -18 198 39 20 60 20 96 1z"/>
<path d="M4375 2846 c-83 -31 -137 -104 -137 -184 1 -58 12 -88 47 -131 61
-71 163 -92 245 -48 24 13 45 28 47 34 6 17 -75 44 -112 37 -42 -8 -102 11
-115 37 -8 14 -7 19 2 19 7 1 74 2 148 3 l135 2 1 36 c4 134 -139 241 -261
195z m98 -85 c27 -10 57 -38 57 -52 0 -5 -43 -9 -95 -9 -52 0 -95 4 -95 8 0
11 41 48 60 55 23 8 47 8 73 -2z"/>
<path d="M2537 2843 c-3 -4 -5 -90 -5 -189 0 -109 -4 -190 -11 -202 -6 -10
-26 -27 -46 -36 -31 -15 -35 -21 -35 -56 0 -34 3 -40 22 -40 37 0 102 38 126
74 34 49 38 79 37 276 l0 175 -42 3 c-22 2 -43 -1 -46 -5z"/>
<path d="M3630 2835 c0 -7 31 -78 68 -157 38 -79 74 -157 81 -174 13 -34 38
-44 88 -37 27 4 35 17 113 183 45 98 83 182 84 187 2 14 -80 15 -91 1 -6 -7
-34 -65 -63 -128 -29 -63 -56 -119 -61 -124 -4 -5 -19 15 -32 45 -13 30 -41
90 -61 135 l-38 81 -44 0 c-30 1 -44 -3 -44 -12z"/>
<path d="M4106 2828 c-2 -13 -4 -96 -4 -186 0 -154 1 -164 20 -171 11 -4 32
-5 47 -3 l26 4 -2 181 c-1 100 -2 185 -2 190 -1 4 -19 7 -41 7 -33 0 -40 -4
-44 -22z"/>
<path d="M342 2481 c-1 -82 3 -122 11 -129 10 -9 163 -98 302 -177 22 -13 78
-45 125 -72 74 -43 88 -48 110 -39 42 19 190 107 190 114 0 4 -43 30 -95 57
-52 28 -95 52 -95 55 0 3 -15 11 -32 19 -18 8 -44 22 -58 31 -14 10 -43 28
-65 40 -22 12 -113 65 -203 117 -89 51 -168 96 -175 99 -10 4 -14 -22 -15
-115z m88 19 c14 -11 28 -20 32 -20 4 0 35 -17 70 -37 35 -21 79 -47 99 -58
186 -103 348 -202 346 -210 -2 -5 -28 -22 -58 -39 l-55 -30 -64 39 c-66 38
-102 59 -164 95 -19 10 -82 47 -140 81 l-106 61 0 69 c0 38 3 69 8 69 4 0 18
-9 32 -20z"/>
</g>
</svg>
